<?xml version="1.0" encoding="UTF-8"?><svg id="Capa_2" xmlns="http://www.w3.org/2000/svg" viewBox="0 0 275.13 31.41"><defs><style>.cls-1{fill:#7baf45;}.cls-1,.cls-2{stroke-width:0px;}.cls-2{fill:#fff;}</style></defs><g id="Layer_1"><path class="cls-1" d="M167.76.18h13.25c3.79,0,6.82,1.14,8.76,3.08,1.5,1.5,2.38,3.65,2.38,6.08v.09c0,5.11-3.52,8.1-8.37,8.98l9.47,12.59h-4.27l-8.94-11.98h-8.81v11.98h-3.48V.18ZM180.71,15.9c4.62,0,7.93-2.38,7.93-6.34v-.09c0-3.79-2.91-6.08-7.88-6.08h-9.51v12.5h9.47Z"/><path class="cls-1" d="M195.68.18h22.28v3.17h-18.8v10.52h16.82v3.17h-16.82v10.79h19.02v3.17h-22.5V.18Z"/><path class="cls-1" d="M221.38.18h3.26l19.42,24.7V.18h3.39v30.82h-2.77l-19.9-25.27v25.27h-3.39V.18Z"/><path class="cls-1" d="M261.26,3.4h-10.35V.18h24.22v3.21h-10.35v27.61h-3.52V3.4Z"/><path class="cls-2" d="M11.33,0L0,31.01h6.71l2.35-5.75h10.23l2.35,5.75h6.86L17.17,0h-5.84ZM16.99,19.36h-5.62l2.81-10.38,2.81,10.38Z"/><polygon class="cls-2" points="156.99 17.91 145.68 .18 139.77 .18 139.77 31.01 146.25 31.01 146.25 12.76 157.97 31.01 163.48 31.01 163.48 .18 156.99 .18 156.99 17.91"/><path class="cls-2" d="M88.4.18c-8.96,0-15.99,6.82-15.99,15.53v.08c0,8.81,6.84,15.45,15.9,15.45s15.99-6.82,15.99-15.53v-.08c0-8.8-6.84-15.45-15.9-15.45ZM96.69,15.8c0,4.91-3.56,8.62-8.29,8.62s-8.37-3.74-8.37-8.7v-.08c0-4.91,3.56-8.62,8.29-8.62s8.37,3.74,8.37,8.7v.08Z"/><path class="cls-2" d="M75.91.21l-30.99-.03v19.41c0,3.68-1.8,5.7-5.08,5.7s-5.08-2.09-5.08-5.88V.18h-6.56v19.37c0,7.53,4.21,11.85,11.56,11.85s11.71-4.39,11.71-12.04V6.3h7.16v24.71h6.56V6.3h6.95l3.76-6.09Z"/><rect class="cls-2" x="128.93" y=".18" width="6.56" height="30.83"/><polygon class="cls-2" points="113.02 6.23 123.48 6.23 127.2 .18 106.46 .18 106.46 31.01 113.02 31.01 113.02 18.22 121.59 18.22 125.06 12.63 113.02 12.63 113.02 6.23"/></g></svg>