<?xml version="1.0" encoding="UTF-8"?><svg id="Capa_2" xmlns="http://www.w3.org/2000/svg" viewBox="0 0 267.2 42.62"><defs><style>.cls-1{fill:none;stroke:#fff;stroke-miterlimit:10;}.cls-2{fill:#fff;}.cls-3{fill:#7baf45;}</style></defs><g id="Layer_1"><rect class="cls-3" width="267.2" height="42.62" rx="11" ry="11"/><path class="cls-2" d="M73.85,22.7c-.09,1.22-.54,2.19-1.36,2.89s-1.89,1.05-3.22,1.05c-1.46,0-2.61-.49-3.44-1.47-.84-.98-1.25-2.33-1.25-4.04v-.7c0-1.09.19-2.06.58-2.89.39-.83.94-1.47,1.65-1.92s1.55-.67,2.5-.67c1.31,0,2.37.35,3.17,1.05s1.27,1.69,1.39,2.96h-2.34c-.06-.73-.26-1.27-.61-1.6-.35-.33-.89-.5-1.61-.5-.78,0-1.37.28-1.75.84-.39.56-.59,1.43-.6,2.61v.86c0,1.23.19,2.13.56,2.7.37.57.96.85,1.76.85.72,0,1.26-.17,1.62-.5.36-.33.56-.84.61-1.54h2.34Z"/><path class="cls-2" d="M74.89,22.18c0-.84.16-1.59.48-2.24s.79-1.16,1.39-1.52,1.31-.54,2.11-.54c1.14,0,2.07.35,2.79,1.05.72.7,1.12,1.65,1.21,2.84l.02.58c0,1.3-.36,2.34-1.09,3.12-.72.78-1.7,1.18-2.91,1.18s-2.19-.39-2.92-1.17-1.09-1.84-1.09-3.19v-.1ZM77.15,22.34c0,.8.15,1.42.45,1.84.3.43.73.64,1.3.64s.97-.21,1.28-.63.46-1.09.46-2.01c0-.79-.15-1.4-.46-1.83-.31-.43-.74-.65-1.3-.65s-.98.22-1.28.65c-.3.43-.45,1.1-.45,2Z"/><path class="cls-2" d="M86.37,18.03l.07.98c.6-.76,1.41-1.13,2.43-1.13.9,0,1.56.26,2,.79.44.53.66,1.31.67,2.36v5.46h-2.26v-5.42c0-.48-.1-.83-.31-1.05-.21-.22-.55-.32-1.04-.32-.64,0-1.11.27-1.43.81v5.97h-2.26v-8.45h2.12Z"/><path class="cls-2" d="M93.87,26.48v-6.8h-1.26v-1.66h1.26v-.72c0-.95.27-1.68.82-2.21s1.31-.79,2.29-.79c.31,0,.7.05,1.15.15l-.02,1.74c-.19-.05-.42-.07-.69-.07-.85,0-1.27.4-1.27,1.21v.69h1.68v1.66h-1.68v6.8h-2.27Z"/><path class="cls-2" d="M98.97,15.84c0-.34.11-.62.34-.84s.54-.33.93-.33.69.11.92.33.34.5.34.84-.12.62-.35.84-.54.33-.92.33-.69-.11-.92-.33-.35-.5-.35-.84ZM101.37,26.48h-2.27v-8.45h2.27v8.45Z"/><path class="cls-2" d="M107.97,20.15c-.31-.04-.58-.06-.81-.06-.85,0-1.41.29-1.68.87v5.53h-2.26v-8.45h2.13l.06,1.01c.45-.78,1.08-1.16,1.88-1.16.25,0,.48.03.7.1l-.03,2.17Z"/><path class="cls-2" d="M111.18,18.03l.07.95c.6-.73,1.41-1.1,2.43-1.1,1.09,0,1.84.43,2.24,1.29.59-.86,1.44-1.29,2.54-1.29.92,0,1.6.27,2.05.8.45.53.67,1.34.67,2.41v5.4h-2.27v-5.4c0-.48-.09-.83-.28-1.05s-.52-.33-.99-.33c-.68,0-1.15.32-1.41.97v5.82s-2.25,0-2.25,0v-5.4c0-.49-.1-.85-.29-1.06s-.52-.33-.98-.33c-.64,0-1.1.27-1.39.8v5.99h-2.26v-8.45h2.12Z"/><path class="cls-2" d="M127.81,26.48c-.1-.2-.18-.46-.23-.76-.55.61-1.26.91-2.13.91-.83,0-1.51-.24-2.06-.72-.54-.48-.82-1.08-.82-1.81,0-.9.33-1.58,1-2.06.66-.48,1.62-.72,2.88-.73h1.04v-.48c0-.39-.1-.7-.3-.94s-.52-.35-.95-.35c-.38,0-.68.09-.89.27-.22.18-.32.43-.32.75h-2.26c0-.49.15-.94.45-1.36.3-.42.73-.74,1.28-.98.55-.24,1.17-.36,1.86-.36,1.04,0,1.87.26,2.48.79s.92,1.26.92,2.21v3.66c0,.8.12,1.41.34,1.82v.13h-2.28ZM125.94,24.91c.33,0,.64-.07.92-.22s.49-.35.62-.6v-1.45h-.84c-1.13,0-1.73.39-1.8,1.17v.13c0,.28.09.51.29.7.2.18.47.27.81.27Z"/><path class="cls-2" d="M136.24,20.15c-.31-.04-.58-.06-.81-.06-.85,0-1.41.29-1.68.87v5.53h-2.26v-8.45h2.13l.06,1.01c.45-.78,1.08-1.16,1.88-1.16.25,0,.48.03.7.1l-.03,2.17Z"/><path class="cls-2" d="M147.36,23.5c0-.44-.16-.78-.47-1.02-.31-.24-.88-.49-1.69-.75-.81-.26-1.46-.52-1.93-.78-1.29-.7-1.94-1.64-1.94-2.82,0-.61.17-1.16.52-1.64.35-.48.84-.86,1.49-1.13.65-.27,1.38-.41,2.18-.41s1.54.15,2.17.44c.64.29,1.13.71,1.48,1.25.35.54.53,1.15.53,1.83h-2.34c0-.52-.16-.93-.49-1.21s-.79-.43-1.38-.43-1.02.12-1.34.36-.48.56-.48.96c0,.37.19.68.56.93s.92.48,1.64.7c1.33.4,2.3.9,2.91,1.49s.91,1.33.91,2.22c0,.98-.37,1.76-1.12,2.32-.75.56-1.75.84-3.01.84-.88,0-1.67-.16-2.39-.48s-1.27-.76-1.64-1.32c-.38-.56-.57-1.2-.57-1.94h2.35c0,1.26.75,1.88,2.25,1.88.56,0,.99-.11,1.3-.34s.47-.54.47-.95Z"/><path class="cls-2" d="M155.04,26.64c-1.24,0-2.25-.38-3.03-1.14-.78-.76-1.17-1.77-1.17-3.04v-.22c0-.85.16-1.61.49-2.28.33-.67.79-1.18,1.39-1.55.6-.36,1.29-.54,2.06-.54,1.16,0,2.07.36,2.73,1.09.66.73,1,1.76,1,3.1v.92h-5.38c.07.55.29.99.66,1.33.37.33.83.5,1.39.5.87,0,1.55-.32,2.04-.95l1.11,1.24c-.34.48-.8.85-1.38,1.12s-1.22.4-1.92.4ZM154.78,19.7c-.45,0-.81.15-1.09.46s-.46.74-.54,1.3h3.14v-.18c-.01-.5-.15-.89-.41-1.17s-.63-.41-1.11-.41Z"/><path class="cls-2" d="M162.18,26.48h-2.27v-12h2.27v12Z"/><path class="cls-2" d="M167.93,26.64c-1.24,0-2.25-.38-3.03-1.14-.78-.76-1.17-1.77-1.17-3.04v-.22c0-.85.16-1.61.49-2.28.33-.67.79-1.18,1.39-1.55.6-.36,1.29-.54,2.06-.54,1.16,0,2.07.36,2.73,1.09.66.73,1,1.76,1,3.1v.92h-5.38c.07.55.29.99.66,1.33.37.33.83.5,1.39.5.87,0,1.55-.32,2.04-.95l1.11,1.24c-.34.48-.8.85-1.38,1.12s-1.22.4-1.92.4ZM167.67,19.7c-.45,0-.81.15-1.09.46s-.46.74-.54,1.3h3.14v-.18c-.01-.5-.15-.89-.41-1.17s-.63-.41-1.11-.41Z"/><path class="cls-2" d="M176.2,24.82c.42,0,.75-.11,1.02-.34.26-.23.4-.53.41-.91h2.12c0,.57-.16,1.1-.47,1.57s-.73.85-1.26,1.11-1.12.39-1.77.39c-1.21,0-2.16-.38-2.86-1.15-.7-.77-1.05-1.83-1.05-3.18v-.15c0-1.3.35-2.34,1.04-3.12.69-.78,1.64-1.16,2.85-1.16,1.06,0,1.91.3,2.54.9s.96,1.4.97,2.4h-2.12c-.01-.44-.15-.8-.41-1.07s-.6-.41-1.03-.41c-.53,0-.92.19-1.19.58-.27.38-.4,1.01-.4,1.87v.23c0,.87.13,1.5.4,1.88.27.38.67.57,1.21.57Z"/><path class="cls-2" d="M184.54,24.82c.42,0,.75-.11,1.02-.34.26-.23.4-.53.41-.91h2.12c0,.57-.16,1.1-.47,1.57s-.73.85-1.26,1.11-1.12.39-1.77.39c-1.21,0-2.16-.38-2.86-1.15-.7-.77-1.05-1.83-1.05-3.18v-.15c0-1.3.35-2.34,1.04-3.12.69-.78,1.64-1.16,2.85-1.16,1.06,0,1.91.3,2.54.9s.96,1.4.97,2.4h-2.12c-.01-.44-.15-.8-.41-1.07s-.6-.41-1.03-.41c-.53,0-.92.19-1.19.58-.27.38-.4,1.01-.4,1.87v.23c0,.87.13,1.5.4,1.88.27.38.67.57,1.21.57Z"/><path class="cls-2" d="M189.36,15.84c0-.34.11-.62.34-.84s.54-.33.93-.33.69.11.92.33.34.5.34.84-.12.62-.35.84-.54.33-.92.33-.69-.11-.92-.33-.35-.5-.35-.84ZM191.76,26.48h-2.27v-8.45h2.27v8.45Z"/><path class="cls-2" d="M193.26,22.18c0-.84.16-1.59.48-2.24s.79-1.16,1.39-1.52,1.31-.54,2.11-.54c1.14,0,2.07.35,2.79,1.05.72.7,1.12,1.65,1.21,2.84l.02.58c0,1.3-.36,2.34-1.09,3.12-.72.78-1.7,1.18-2.91,1.18s-2.19-.39-2.92-1.17-1.09-1.84-1.09-3.19v-.1ZM195.52,22.34c0,.8.15,1.42.45,1.84.3.43.73.64,1.3.64s.97-.21,1.28-.63.46-1.09.46-2.01c0-.79-.15-1.4-.46-1.83-.31-.43-.74-.65-1.3-.65s-.98.22-1.28.65c-.3.43-.45,1.1-.45,2ZM197.7,14.48h2.46l-2.16,2.42h-1.84l1.54-2.42Z"/><path class="cls-2" d="M204.74,18.03l.07.98c.6-.76,1.41-1.13,2.43-1.13.9,0,1.56.26,2,.79.44.53.66,1.31.67,2.36v5.46h-2.26v-5.42c0-.48-.1-.83-.31-1.05-.21-.22-.55-.32-1.04-.32-.64,0-1.11.27-1.43.81v5.97h-2.26v-8.45h2.12Z"/><polyline class="cls-1" points="45.22 17.34 36.4 26.15 32.6 22.35"/><circle class="cls-1" cx="38.91" cy="21.31" r="11.38"/></g></svg>