<?xml version="1.0" encoding="UTF-8"?><svg id="Layer_1" xmlns="http://www.w3.org/2000/svg" viewBox="0 0 98.07 77.61"><defs><style>.cls-1,.cls-2{fill:#1c2c4f;}.cls-2{fill-rule:evenodd;}</style></defs><g><path class="cls-1" d="M22.56,70.3h-1.06v3.59h1.06c.54,0,.92-.27,1.13-.8,.12-.29,.18-.64,.18-1.05,0-.56-.09-.99-.26-1.29-.17-.3-.52-.45-1.04-.45Z"/><path class="cls-1" d="M0,66.57v11.04H98.07v-11.04H0Zm6.24,7.92c-.38,.33-.92,.5-1.62,.5s-1.28-.16-1.69-.49c-.41-.33-.61-.78-.61-1.35h1.1c.03,.25,.1,.44,.2,.56,.19,.23,.51,.34,.96,.34,.27,0,.49-.03,.66-.09,.32-.11,.48-.33,.48-.64,0-.18-.08-.32-.24-.42-.16-.1-.41-.18-.75-.26l-.58-.13c-.57-.13-.97-.27-1.19-.42-.37-.25-.56-.65-.56-1.19,0-.49,.18-.9,.54-1.23,.36-.33,.88-.49,1.58-.49,.58,0,1.07,.15,1.48,.46,.41,.31,.62,.75,.64,1.33h-1.1c-.02-.33-.16-.56-.43-.7-.18-.09-.4-.14-.67-.14-.3,0-.53,.06-.71,.18-.18,.12-.26,.29-.26,.5,0,.2,.09,.34,.26,.44,.11,.06,.35,.14,.72,.23l.95,.23c.41,.1,.73,.23,.94,.4,.33,.26,.49,.63,.49,1.12s-.19,.92-.58,1.25Zm5.66-.13c-.41,.43-1.02,.64-1.8,.64-.79,0-1.39-.21-1.8-.64-.56-.52-.83-1.28-.83-2.27s.28-1.76,.83-2.27c.41-.43,1.01-.64,1.8-.64,.79,0,1.39,.21,1.8,.64,.55,.5,.83,1.26,.83,2.27,0,.99-.28,1.74-.83,2.27Zm5.58,.49h-3.87v-5.49h1.15v4.51h2.72v.99Zm1.84,0h-1.14v-5.49h1.14v5.49Zm5.28-1.02c-.4,.68-1.01,1.02-1.84,1.02h-2.37v-5.49h2.37c.34,0,.62,.04,.85,.12,.39,.13,.7,.36,.94,.7,.19,.27,.32,.57,.39,.89,.07,.32,.1,.62,.1,.91,0,.73-.15,1.35-.44,1.86Zm5.5,1.02h-4.16v-5.49h4.03v.97h-2.91v1.17h2.67v.95h-2.67v1.41h3.04v.99Zm4.78,0h-4.27v-.97l2.84-3.55h-2.77v-.97h4.2v.92l-2.87,3.6h2.88v.97Zm5.36-2.06v2.06h-1.15v-2.06l-1.9-3.43h1.35l1.14,2.39,1.09-2.39h1.3l-1.84,3.43Zm8.67,2.06h-4.16v-5.49h4.03v.97h-2.91v1.17h2.67v.95h-2.67v1.41h3.04v.99Zm3.92,0l-1.04-1.87-1.1,1.87h-1.33l1.77-2.8-1.68-2.69h1.37l.98,1.79,1.01-1.79h1.33l-1.68,2.65,1.79,2.84h-1.39Zm5.81-2.38c-.33,.27-.8,.4-1.41,.4h-1.17v1.98h-1.14v-5.49h2.39c.55,0,.99,.14,1.32,.43,.33,.28,.49,.72,.49,1.32,0,.65-.16,1.11-.49,1.38Zm5.55,2.38h-4.16v-5.49h4.03v.97h-2.91v1.17h2.67v.95h-2.67v1.41h3.04v.99Zm5.5,0h-1.26c-.03-.12-.06-.22-.07-.29-.03-.15-.05-.31-.05-.47v-.51c-.01-.35-.08-.58-.2-.7-.12-.12-.35-.18-.69-.18h-1.19v2.15h-1.12v-5.49h2.69c.39,0,.68,.06,.89,.14,.21,.09,.39,.21,.53,.38,.12,.14,.21,.29,.28,.46,.07,.17,.1,.36,.1,.58,0,.26-.07,.52-.2,.77-.13,.25-.35,.43-.65,.53,.25,.1,.43,.25,.54,.44,.11,.19,.16,.47,.16,.86v.37c0,.25,0,.42,.03,.51,.03,.14,.1,.25,.21,.31v.14Zm1.95,0h-1.14v-5.49h1.14v5.49Zm5.27,0h-4.16v-5.49h4.03v.97h-2.91v1.17h2.67v.95h-2.67v1.41h3.04v.99Zm5.34,0h-1.15l-2.24-3.9v3.9h-1.07v-5.49h1.2l2.19,3.84v-3.84h1.07v5.49Zm2.39-1.3c.26,.31,.58,.46,.97,.46s.71-.13,.92-.4c.12-.14,.21-.35,.29-.64h1.14c-.1,.6-.35,1.09-.76,1.46-.41,.38-.93,.56-1.57,.56-.79,0-1.41-.25-1.86-.76-.45-.51-.68-1.21-.68-2.09,0-.96,.26-1.7,.77-2.22,.45-.45,1.02-.68,1.71-.68,.92,0,1.6,.3,2.03,.91,.24,.34,.36,.68,.38,1.02h-1.15c-.07-.26-.17-.46-.29-.6-.21-.24-.52-.36-.93-.36s-.75,.17-.99,.51c-.24,.34-.36,.81-.36,1.43s.13,1.08,.38,1.39Zm5.25,1.3h-1.14v-5.49h1.14v5.49Zm4.64,0l-.35-1.13h-2.02l-.38,1.13h-1.2l1.96-5.49h1.3l1.95,5.49h-1.24Z"/><path class="cls-1" d="M57.13,70.3h-1.07v1.62h1.07c.27,0,.48-.07,.63-.2,.15-.13,.23-.34,.23-.63,0-.29-.08-.49-.23-.61-.15-.12-.36-.18-.63-.18Z"/><path class="cls-1" d="M10.1,70.16c-.45,0-.82,.17-1.09,.5-.27,.34-.41,.81-.41,1.43s.14,1.1,.41,1.43c.27,.34,.63,.5,1.09,.5s.81-.17,1.08-.5c.27-.34,.4-.81,.4-1.43s-.13-1.09-.4-1.43c-.27-.34-.63-.51-1.08-.51Z"/><path class="cls-1" d="M68.12,70.4c-.12-.06-.31-.1-.56-.1h-1.33v1.48h1.3c.26,0,.45-.03,.58-.09,.23-.1,.34-.31,.34-.62,0-.33-.11-.56-.33-.67Z"/><polygon class="cls-1" points="92.45 72.77 93.84 72.77 93.15 70.61 92.45 72.77"/></g><path class="cls-2" d="M40.43,36.44s.44-.47,.23-.62l-.37-.27-8.1,11.15,5.47,3.97,2.03-2.48c.89-1.09-.31-3.61-.31-3.61,1.56-1.69,3.13-6.64,1.06-8.14Z"/><path class="cls-2" d="M51.7,40.78s-.3-.57-.52-.42l-.37,.26,7.91,11.29,5.53-3.88-1.68-2.72c-.74-1.2-3.52-.88-3.52-.88-1.08-2.03-5.26-5.12-7.35-3.66Z"/><path class="cls-2" d="M41.23,24.63s.58,.27,.66,.02l.14-.43-13.11-4.26-2.09,6.43,2.98,1.16c1.32,.51,3.34-1.41,3.34-1.41,2.09,.97,7.28,.93,8.07-1.5Z"/><path class="cls-2" d="M52.84,21.57s-.08,.64,.18,.64h.46V8.42h-6.76l-.18,3.2c-.08,1.41,2.37,2.74,2.37,2.74-.27,2.28,1.37,7.21,3.93,7.21Z"/><path class="cls-2" d="M59.32,31.81s-.63,.14-.54,.38l.15,.43,13.04-4.49-2.2-6.39-3.08,.87c-1.36,.38-1.82,3.14-1.82,3.14-2.25,.48-6.37,3.64-5.54,6.06Z"/><g><path class="cls-2" d="M26.54,9.45c.17-.74,.61-1.4,1.33-1.98,.29-.23,.61-.42,.96-.57,.35-.15,.56-.25,.63-.31,.07-.06,.12-.13,.13-.2,.01-.08,0-.17-.03-.27l.19-.16,.99,1.22-.18,.14c-.38-.13-.72-.2-1.02-.21-.56-.02-1.04,.14-1.45,.47-.45,.36-.66,.77-.63,1.24,.03,.46,.26,.96,.69,1.49,.35,.44,.76,.75,1.23,.94,.47,.19,.98,.06,1.53-.39,.3-.24,.46-.45,.48-.63,.02-.1-.02-.2-.11-.31l-.45-.55c-.13-.16-.28-.21-.45-.15-.11,.04-.29,.16-.55,.36l-.11-.13,2.39-1.93,.11,.13c-.23,.2-.36,.37-.39,.5-.02,.13,.04,.28,.18,.46l.54,.67c-.1,.2-.29,.47-.57,.82-.29,.35-.64,.7-1.07,1.04-.77,.63-1.54,.94-2.3,.95-.71,0-1.27-.25-1.69-.77-.42-.52-.55-1.14-.4-1.86Z"/><g><path class="cls-2" d="M70.5,8.74c-.21-.71-.68-1.34-1.4-1.88-.75-.57-1.5-.84-2.25-.83-.74,0-1.33,.29-1.75,.86-.39,.51-.49,1.12-.31,1.82,.19,.75,.67,1.41,1.44,1.98,.72,.54,1.45,.82,2.2,.83,.76,.01,1.36-.27,1.78-.83,.43-.57,.53-1.21,.31-1.94Zm-1.58,.98c-.31,.42-.62,.71-.92,.89-.56,.33-1.11,.29-1.64-.12-.54-.41-.73-.92-.57-1.55,.09-.34,.29-.72,.6-1.13,.31-.41,.61-.71,.91-.88,.57-.33,1.12-.3,1.66,.11,.39,.29,.59,.67,.59,1.13,0,.46-.2,.98-.63,1.55Z"/><path class="cls-2" d="M61.34,2.75c-.31-.31-.83-.58-1.56-.83l-2.73-.94-.06,.16c.27,.12,.44,.23,.51,.32,.08,.1,.07,.26-.01,.5l-.97,2.81c-.08,.23-.18,.36-.3,.4-.12,.04-.32,.02-.6-.06l-.06,.16,2.82,.97,.06-.16c-.28-.11-.47-.22-.55-.32-.08-.11-.08-.28,0-.51l.41-1.19c.51,.17,.89,.3,1.15,.37,.26,.07,.54,.11,.82,.12,.38,0,.67-.06,.88-.19,.21-.13,.35-.3,.43-.51,.15-.43,.06-.8-.25-1.1Zm-1.2,.62c-.15,.43-.38,.66-.69,.69-.2,.02-.55-.05-1.05-.22l.59-1.71c.03-.09,.09-.13,.17-.14,.09,0,.21,.02,.38,.08,.37,.13,.58,.3,.65,.52,.07,.22,.05,.48-.05,.77Z"/><path class="cls-2" d="M48.91,0V.17c-.35,0-.58,.05-.7,.12-.12,.07-.18,.24-.18,.5V3.04c0,.34,.06,.61,.16,.79,.2,.35,.57,.52,1.12,.52,.69,0,1.15-.19,1.4-.57,.13-.21,.2-.51,.2-.88V.84c0-.24-.06-.41-.18-.5-.12-.09-.35-.15-.69-.17V0h1.97V.17c-.29,.04-.48,.09-.57,.15-.09,.06-.14,.2-.14,.41V2.9c0,.57-.18,1.01-.55,1.33-.37,.31-.95,.47-1.73,.47-1.03,0-1.73-.23-2.11-.69-.2-.25-.3-.56-.3-.95V.79c0-.25-.05-.41-.14-.48-.09-.07-.29-.11-.6-.14v-.17s3.03,0,3.03,0Z"/><path class="cls-2" d="M22.75,33.77l-.17,.02c-.05-.34-.11-.57-.19-.68-.08-.11-.25-.15-.51-.12l-2.24,.23c-.34,.04-.6,.12-.77,.24-.32,.23-.46,.62-.4,1.17,.07,.68,.31,1.13,.72,1.33,.22,.11,.52,.15,.9,.11l2.05-.21c.24-.03,.4-.1,.48-.23,.08-.13,.11-.36,.09-.7l.17-.02,.21,1.96-.17,.02c-.07-.28-.14-.46-.21-.55-.07-.08-.21-.11-.43-.09l-2.14,.22c-.57,.06-1.03-.08-1.38-.41-.35-.33-.56-.89-.65-1.67-.11-1.02,.05-1.75,.47-2.17,.22-.23,.53-.36,.91-.4l2.24-.23c.25-.03,.41-.09,.46-.18,.06-.09,.08-.3,.07-.61l.17-.02,.32,3.01Z"/><path class="cls-2" d="M23.68,38.73l2.11,4.97-1.25,.54-.1-.24c.41-.27,.62-.62,.62-1.05,0-.24-.08-.57-.25-.99l-3.26,1.38c-.23,.1-.36,.21-.39,.35-.03,.14,.03,.38,.17,.71l-.16,.07-1.25-2.94,.16-.07c.14,.32,.26,.52,.38,.59,.12,.07,.3,.06,.52-.03l3.26-1.38c-.18-.4-.36-.69-.54-.87-.33-.33-.73-.42-1.19-.29l-.1-.24,1.25-.52Z"/><path class="cls-2" d="M30.03,55.14c.22,.14,.38,.22,.5,.24,.18,.04,.32-.03,.43-.19l1.82-2.7c.11-.16,.11-.32,.02-.46-.06-.09-.2-.22-.41-.38l.1-.14,4.21,2.84-.76,1.13-.18-.12c.14-.41,.15-.76,.03-1.04-.12-.29-.48-.63-1.06-1.02-.22-.15-.37-.22-.46-.22-.08,0-.16,.05-.23,.15l-.87,1.29c.4,.28,.71,.4,.94,.36,.23-.04,.48-.18,.75-.42l.19,.13-1.27,1.89-.19-.13c.15-.34,.2-.62,.14-.87-.06-.24-.29-.5-.69-.77l-.88,1.3c-.12,.17-.12,.33-.02,.46,.1,.14,.3,.3,.57,.48l-.1,.14-2.67-1.8,.1-.14Z"/><path class="cls-2" d="M36.95,59.18c.24,.08,.42,.12,.54,.12,.19,0,.32-.1,.39-.29l1.11-3.06c.07-.19,.03-.34-.11-.47-.08-.07-.25-.16-.5-.26l.06-.16,2.94,1.07-.06,.16c-.27-.09-.46-.13-.57-.13-.19,0-.32,.1-.38,.29l-1.11,3.06c-.06,.18-.04,.32,.07,.43,.11,.11,.3,.21,.56,.31l-.06,.16-2.94-1.07,.06-.16Z"/><path class="cls-2" d="M42.68,61.13c.33,.03,.55,0,.65-.07,.11-.08,.17-.21,.18-.38l.33-3.17c-.25-.26-.4-.41-.46-.46-.06-.05-.14-.08-.25-.11l.02-.17,1.89,.2,2.77,3.15h.04s.21-1.99,.21-1.99c.02-.23-.01-.39-.11-.5-.1-.11-.31-.19-.64-.25l.02-.17,1.92,.2-.02,.17c-.28,0-.47,.03-.58,.08-.1,.05-.16,.18-.18,.38l-.41,3.94-.25-.03-3.55-4h-.06s-.28,2.62-.28,2.62c-.02,.21,0,.35,.07,.45,.1,.15,.34,.25,.71,.3l-.02,.17-2.02-.21,.02-.17Z"/><path class="cls-2" d="M56.46,61.04c.32-.13,.5-.25,.57-.37,.06-.12,.06-.26,0-.43l-1.2-2.96c-.07-.17-.17-.26-.3-.27-.13-.01-.34,.03-.62,.13l-.06-.16,2.09-.84,2.8,2.23,.07-.03,.46-3.55,2.09-.85,.06,.16c-.27,.13-.45,.25-.53,.35-.08,.1-.07,.27,.03,.52l1.12,2.76c.09,.23,.21,.36,.34,.39,.13,.03,.34,0,.62-.11l.06,.16-2.76,1.11-.06-.16c.24-.11,.42-.21,.52-.32,.1-.11,.11-.26,.04-.44l-1.23-3.05-.06,.02-.55,4.49-.22,.09-3.51-2.77h-.04s1.14,2.84,1.14,2.84c.08,.21,.2,.34,.34,.39,.14,.05,.39,.02,.75-.12l.06,.16-1.94,.78-.06-.16Z"/><path class="cls-2" d="M66.75,56.37l-.11-.13c.2-.17,.32-.3,.37-.41,.09-.16,.07-.31-.05-.46l-2.05-2.53c-.12-.15-.27-.2-.45-.15-.1,.03-.26,.12-.47,.28l-.11-.13,4.01-3.25,.86,1.06-.17,.14c-.36-.27-.7-.37-1.01-.33-.31,.05-.75,.3-1.31,.75-.21,.17-.34,.3-.37,.38-.03,.08,0,.17,.07,.27l.98,1.21c.4-.32,.62-.59,.68-.81,.05-.23,0-.52-.17-.88l.18-.14,1.43,1.77-.18,.14c-.29-.26-.56-.38-.82-.38-.25,0-.58,.16-.97,.48l1.03,1.27c.09,.11,.19,.16,.3,.14,.11-.02,.28-.13,.52-.32,.44-.36,.75-.72,.93-1.08,.18-.36,.23-.8,.16-1.33l.19-.16,.6,1.32-4.07,3.29Z"/><path class="cls-2" d="M73.08,50.3c.1-.21,.17-.36,.2-.46,.04-.16,.05-.34,.02-.52l-.36-2.13-2.61,.37c-.19,.03-.34,.07-.44,.12-.1,.05-.2,.14-.29,.25l-.14-.1,1.73-2.57,.14,.1c-.15,.25-.25,.41-.28,.51-.03,.09-.01,.16,.06,.21,.03,.02,.07,.03,.12,.04,.04,0,.1,0,.17,0l1.33-.15c-.15-.69-.25-1.12-.29-1.26-.04-.15-.1-.24-.16-.29-.08-.05-.18-.03-.29,.07-.06,.06-.16,.17-.28,.34l-.14-.1,1.25-1.86,.14,.1c-.2,.34-.29,.66-.28,.95,.01,.29,.14,.96,.37,2.01l2.49-.29c.32-.04,.54-.08,.64-.13,.11-.05,.21-.14,.32-.27l.14,.1-1.7,2.53-.14-.1c.14-.22,.23-.37,.26-.45,.05-.12,.04-.21-.03-.26-.03-.02-.07-.03-.14-.04-.06-.01-.15-.01-.26,0l-1.41,.14,.09,.47c.08,.4,.14,.68,.18,.83,.07,.25,.13,.4,.2,.44,.1,.07,.22,.03,.38-.12,.09-.08,.18-.19,.26-.32l.14,.1-1.25,1.86-.14-.1Z"/><path class="cls-2" d="M77.58,42.61c.09-.24,.13-.42,.13-.54,0-.19-.09-.33-.28-.4l-3.04-1.17c-.19-.07-.34-.04-.47,.1-.08,.08-.17,.25-.27,.5l-.16-.06,1.12-2.92,.16,.06c-.09,.26-.14,.45-.14,.57,0,.19,.1,.32,.28,.39l3.04,1.17c.18,.07,.32,.05,.43-.06,.11-.11,.21-.29,.31-.55l.16,.06-1.12,2.92-.16-.06Z"/><path class="cls-2" d="M75.62,31.9c.14-.37,.22-.58,.22-.62,.01-.11-.01-.21-.07-.28-.06-.08-.12-.13-.19-.15l.03-.25,1.57,.17-.02,.23c-.36,.18-.65,.37-.87,.57-.41,.38-.64,.83-.69,1.36-.06,.6,.09,1.04,.45,1.34,.36,.29,.87,.47,1.52,.54,.48,.05,.88,.02,1.21-.1,.61-.21,.95-.7,1.03-1.44,.05-.46,0-.89-.15-1.31-.09-.24-.24-.52-.45-.86l.19-.25c.26,.38,.44,.71,.54,.99,.18,.49,.25,1.03,.19,1.6-.09,.88-.37,1.6-.82,2.15-.5,.61-1.12,.88-1.86,.8-.73-.08-1.29-.45-1.67-1.13-.36-.64-.5-1.38-.41-2.24,.04-.37,.13-.74,.28-1.11Z"/><path class="cls-2" d="M40.62,5.75l1.73-.6-.05-.15c-.08,.02-.15,.04-.2,.04-.06,0-.12-.01-.18-.05l-2.33-1.23c.28-.14,.52-.33,.72-.57,.27-.32,.35-.65,.23-.99-.16-.47-.61-.68-1.35-.62-.38,.03-.85,.14-1.42,.34l-2.73,.94,.06,.16c.3-.08,.49-.11,.59-.09,.15,.03,.27,.17,.35,.42l.97,2.81c.08,.24,.08,.41,0,.51-.08,.11-.26,.21-.55,.32l.06,.16,2.86-.98-.06-.16c-.3,.09-.51,.12-.64,.08-.13-.04-.23-.18-.31-.4l-.43-1.25,.22-.08,2.44,1.39Zm-2.74-1.51l-.56-1.62c-.03-.1-.02-.18,.03-.24,.06-.07,.2-.14,.42-.22,.42-.14,.74-.12,.99,.07,.14,.11,.25,.29,.34,.54,.14,.4,.11,.7-.09,.89-.2,.19-.58,.39-1.13,.58Z"/><path class="cls-2" d="M19.82,23.19c-.26-.2-.43-.35-.5-.45-.11-.15-.16-.33-.14-.55l-.17-.03-.29,1.81,.17,.03c.03-.2,.07-.35,.11-.45,.07-.16,.15-.24,.25-.22,.08,.01,.2,.07,.36,.18,.07,.05,.23,.16,.48,.33l-.31,1.99-.44,.16c-.1,.04-.18,.06-.25,.08-.11,.03-.2,.04-.25,.03-.11-.02-.18-.08-.19-.17-.01-.09,0-.29,.03-.57l-.17-.03-.45,2.87,.17,.03c.03-.2,.11-.35,.24-.44,.13-.09,.41-.22,.84-.38l3.81-1.42,.04-.25-3.33-2.54Zm1.91,1.94l-1.67,.6,.27-1.72,1.41,1.04v.07Z"/><path class="cls-2" d="M29.9,49.93c-.05-.74-.36-1.46-.95-2.15-.6-.72-1.27-1.16-2.01-1.32-.73-.16-1.36-.01-1.9,.44-.49,.41-.73,.98-.71,1.7,.02,.77,.34,1.52,.95,2.26,.58,.69,1.23,1.13,1.95,1.3,.74,.18,1.38,.05,1.92-.41,.54-.46,.79-1.06,.74-1.82Zm-.79-.77c-.09,.45-.42,.91-.97,1.37-.4,.34-.77,.56-1.1,.66-.62,.19-1.15,.03-1.58-.48-.44-.52-.5-1.07-.2-1.64,.16-.31,.44-.63,.84-.97,.39-.33,.76-.55,1.09-.66,.63-.2,1.16-.04,1.59,.48,.31,.37,.42,.79,.32,1.24Z"/><path class="cls-2" d="M79.5,24.12c-.19-.88-.56-1.57-1.11-2.07-.57-.51-1.2-.69-1.89-.54-.69,.15-1.19,.57-1.51,1.26-.3,.68-.36,1.46-.17,2.34,.2,.92,.58,1.62,1.16,2.11,.57,.48,1.2,.65,1.89,.5,.63-.13,1.1-.52,1.43-1.17,.34-.69,.42-1.5,.22-2.44Zm-.81,1.59c-.29,.2-.69,.35-1.2,.46-.5,.11-.93,.13-1.27,.07-.65-.12-1.04-.51-1.18-1.17-.1-.48,0-.89,.29-1.24,.3-.35,.8-.61,1.5-.76,.51-.11,.94-.13,1.28-.07,.64,.12,1.03,.51,1.17,1.17,.14,.66-.05,1.18-.59,1.54Z"/></g></g><path class="cls-2" d="M56.84,37.98l-3.14-3.61,.22-.08-.13-1.21c1.79-.42,.4-3.29,1.98-4.06,2.64-1.3,5.64-2.42,5.64-2.42l1.3-2.96,6.84-2.84-.39-1.12-8,2.56-2.85,3.78-4.54,2.11-.39-.13v-.41l-1.19-.27c.18-1.83-2.98-1.45-3.2-3.2-.37-2.92-.46-6.12-.46-6.12l-2.37-2.19-.46-7.39h-1.19l-.18,8.4,2.65,3.93,.52,5-.2,.28-.18-.06-.63,1.04c-1.68-.74-2.3,2.38-4.03,2.05-2.89-.56-5.96-1.46-5.96-1.46l-2.82,1.58-7.17-1.85-.37,1.13,7.93,2.77,4.55-1.3,5.05,1.08-.17,.23,.8,.92c-1.22,1.37,1.56,2.92,.71,4.46-1.42,2.58-3.23,5.22-3.23,5.22l.63,3.17-3.98,6.25,.96,.7,5.09-6.69,.17-4.73,2.21-3.83,2.22-.76c1.05,.85,3.08-.76,4.15,.42,1.97,2.18,3.88,4.75,3.88,4.75l3.2,.43,4.62,5.8,.97-.68-4.67-6.98-4.42-1.7Zm-7.83-3.33c-1.99,0-3.6-1.61-3.6-3.6s1.61-3.6,3.6-3.6,3.6,1.61,3.6,3.6-1.61,3.6-3.6,3.6Z"/></svg>